<svg xmlns="http://www.w3.org/2000/svg" width="26" height="26" viewBox="0 0 26 26"><path d="M2.481,5.2l19.2,18.745M2.481,5.2A3.942,3.942,0,0,1,5.455,3.867h6.491M2.481,5.2A3.676,3.676,0,0,0,1.56,7.632v13.8A3.831,3.831,0,0,0,5.455,25.2h14.28a3.831,3.831,0,0,0,3.894-3.765V15.788m-11.684,0L3.507,23.945M21.146,5.467v-.08m4.414-.013c0,2.783-4.414,6.493-4.414,6.493s-4.414-3.71-4.414-6.493A4.3,4.3,0,0,1,21.146,1.2,4.3,4.3,0,0,1,25.56,5.374Z" transform="translate(-0.56 -0.2)" fill="none" stroke="#111" stroke-linecap="round" stroke-linejoin="round" stroke-width="2"/></svg>